<?xml version="1.0" encoding="UTF-8" standalone="no"?>
<svg
  width="83.022842mm"
  height="83.023361mm"
  viewBox="0 0 83.022842 83.023361"
  version="1.1"
  id="svg1"
  xml:space="preserve"
  sodipodi:docname="coup.svg"
  xmlns:sodipodi="http://sodipodi.sourceforge.net/DTD/sodipodi-0.dtd"
  xmlns="http://www.w3.org/2000/svg"
  xmlns:svg="http://www.w3.org/2000/svg"><sodipodi:namedview
     id="namedview1"
     pagecolor="#ffffff"
     bordercolor="#000000"
     borderopacity="0.25"
    /><defs
     id="defs1" /><circle
     style="display:inline;fill:#000000;stroke-width:0.264999;fill-opacity:1"
     id="path2"
     cx="41.511421"
     cy="41.511681"
     r="40.107655" /><g
     id="layer1"
     transform="translate(-63.488631,-106.9883)"><path
       id="path1"
       style="fill:#ffbb0a;fill-opacity:1;stroke-width:0.264999"
       d="m 104.99979,106.9883 a 41.511627,41.511627 0 0 0 -41.511159,41.51168 41.511627,41.511627 0 0 0 41.511159,41.51168 41.511627,41.511627 0 0 0 41.51168,-41.51168 41.511627,41.511627 0 0 0 -41.51168,-41.51168 z m 0,2.78226 a 38.729229,38.729229 0 0 1 38.72942,38.72942 38.729229,38.729229 0 0 1 -38.72942,38.72942 38.729229,38.729229 0 0 1 -38.7289,-38.72942 38.729229,38.729229 0 0 1 38.7289,-38.72942 z m 0,1.98748 a 36.741806,36.741806 0 0 0 -36.741424,36.74194 36.741806,36.741806 0 0 0 36.741424,36.74194 36.741806,36.741806 0 0 0 36.74195,-36.74194 36.741806,36.741806 0 0 0 -36.74195,-36.74194 z m -0.13591,3.81578 c 1.25017,0.004 2.0289,0.21666 2.59158,0.70642 0.40707,0.3543 0.42474,0.41248 0.35966,1.15652 -0.0376,0.43084 -0.1694,1.25299 -0.293,1.82728 -0.25885,1.20264 -0.22328,1.68434 0.33693,4.5806 0.83976,4.34167 0.87796,7.26298 0.14314,10.8815 -0.22591,1.11247 -0.4403,2.05292 -0.47645,2.09032 -0.0362,0.0374 -1.1306,0.10122 -2.4319,0.14159 l -2.36574,0.0734 -0.078,-1.32033 c -0.043,-0.72625 -0.18242,-2.0479 -0.30955,-2.93729 -0.32982,-2.30751 -0.32596,-7.00595 0.007,-8.99945 0.1357,-0.81204 0.2737,-2.09883 0.30696,-2.85978 0.0552,-1.26167 0.0294,-1.45538 -0.29249,-2.19728 -0.47838,-1.10265 -0.46229,-1.69385 0.062,-2.31149 v -5.1e-4 c 0.527,-0.62088 1.15884,-0.83615 2.43964,-0.83148 z m 0.17777,1.233 c -0.69281,-0.0492 -1.32465,0.79107 -0.78186,1.59267 h 5.1e-4 c 0.30967,0.45732 1.04075,0.42737 1.40974,-0.0579 0.34419,-0.45262 0.35595,-0.77243 0.0434,-1.15445 -0.2033,-0.24853 -0.44085,-0.36392 -0.67179,-0.38034 z m -2.34766,20.32589 h 2.4443 c 2.23611,0 2.44467,0.0208 2.44739,0.24598 0.002,0.13534 0.11928,0.5111 0.26148,0.8351 0.31024,0.70687 0.91812,1.135 2.3642,1.66604 l 1.0418,0.38293 v 1.08934 c 0,0.76342 -0.0571,1.13842 -0.19069,1.25315 -0.12096,0.10382 -0.6059,0.14903 -1.3255,0.12299 l -1.13481,-0.0413 -0.0419,-0.44649 c -0.0737,-0.78634 -0.20365,-0.81941 -3.22409,-0.81597 -3.0529,0.003 -3.1134,0.0201 -3.25665,0.89711 l -0.0868,0.53278 -1.38493,-0.0661 c -0.761722,-0.0364 -1.492314,-0.12393 -1.623154,-0.1943 -0.188555,-0.10142 -0.237712,-0.3127 -0.237712,-1.01958 0,-0.54404 0.06636,-0.94696 0.170016,-1.03352 0.09346,-0.078 0.640769,-0.34375 1.21646,-0.59015 1.74443,-0.74658 2.22286,-1.21556 2.47944,-2.43138 z m 1.2392,4.51653 c 1.58524,-0.0367 4.19145,0.0653 4.34082,0.22014 0.12372,0.1282 0.12197,0.63206 -0.008,2.18694 -0.19555,2.33176 -0.0879,3.19804 0.55552,4.4664 l 0.39223,0.77308 -10e-4,4.42918 c -0.003,9.21589 -0.63371,16.23262 -2.03605,22.63893 -0.72563,3.31486 -1.31031,5.06223 -1.69395,5.06223 -0.54406,0 -2.10316,-5.63997 -2.9931,-10.82725 -0.70903,-4.13282 -0.90181,-6.63794 -1.15859,-15.04559 -0.14797,-4.84492 -0.14963,-5.83396 -0.009,-6.67918 h -10e-4 c 0.0513,-0.30934 0.19008,-0.75242 0.30851,-0.98444 0.39389,-0.77167 0.53492,-1.6324 0.62786,-3.84059 l 0.092,-2.1885 0.46767,-0.12506 c 0.17258,-0.0461 0.5878,-0.0741 1.11621,-0.0863 z m 1.4764,1.98385 c -0.0909,-0.0197 -0.18792,0.0104 -0.3359,0.0801 -0.37447,0.1765 -0.46919,0.68779 -0.18242,0.98444 0.28677,0.29664 0.78126,0.19874 0.95188,-0.18862 0.13486,-0.30617 0.11551,-0.40044 -0.13332,-0.65784 -0.12442,-0.1287 -0.2093,-0.1984 -0.30024,-0.21808 z m -0.23823,3.22565 c -0.39959,0.0856 -0.6149,0.72699 -0.28009,1.07332 0.2708,0.28011 0.64875,0.19056 0.81804,-0.19379 0.18188,-0.4129 0.0241,-0.80209 -0.35657,-0.87953 -0.0635,-0.0129 -0.1243,-0.0122 -0.18138,0 z m 0.0703,3.35845 c -0.17313,-0.0207 -0.34609,0.007 -0.42943,0.093 -0.17427,0.18026 -0.0221,0.9222 0.22169,1.08003 0.49296,0.31928 1.02632,-0.49538 0.63975,-0.9772 -0.0853,-0.10634 -0.25888,-0.17519 -0.43201,-0.19585 z m 0.26613,6.28799 c -0.0384,0.13915 -0.063,2.49161 -0.0754,7.16028 -0.016,5.98703 0.0223,9.19694 0.11111,9.2537 h 5.2e-4 c 0.15545,0.0994 0.16041,-11.57411 0.007,-15.81919 -0.016,-0.44162 -0.0301,-0.64118 -0.0429,-0.59479 z" /></g></svg>
